<?xml version="1.0" encoding="UTF-8"?>
<svg id="Layer_3" data-name="Layer 3" xmlns="http://www.w3.org/2000/svg" viewBox="0 0 284 165.747">
  <defs>
    <style>
      .cls-1 {
        fill: #00998e;
      }

      .cls-1, .cls-2 {
        stroke-width: 0px;
      }

      .cls-2 {
        fill: #139148;
      }
    </style>
  </defs>
  <polygon class="cls-1" points="56.8 32.703 87.879 77.102 96.51 70.825 56.8 32.703"/>
  <polygon class="cls-1" points="141.095 38.399 144.117 40.533 146.712 42.365 142.861 0 138.086 40.588 138.102 40.575 141.095 38.399"/>
  <polygon class="cls-1" points="208.267 148.024 280.558 137.697 208.267 134.255 277.115 117.042 208.267 122.206 271.952 91.224 208.267 108.436 259.903 72.291 204.824 94.97 204.824 165.236 207.994 165.236 284 153.188 208.267 148.024"/>
  <polygon class="cls-1" points="158.634 48.194 163.515 48.194 163.876 48.194 165.236 4.653 151.641 45.844 158.494 50.681 158.634 48.194"/>
  <polygon class="cls-1" points="77.455 20.655 98.03 69.719 107.258 63.007 77.455 20.655"/>
  <polygon class="cls-1" points="187.596 69.437 208.267 20.144 187.616 49.49 187.612 53.363 187.596 69.437"/>
  <polygon class="cls-1" points="187.612 11.538 169.284 48.194 179.594 48.194 187.612 11.538"/>
  <polygon class="cls-1" points="98.109 12.048 108.982 61.754 119.234 54.298 98.109 12.048"/>
  <polygon class="cls-1" points="228.921 32.193 187.981 71.496 199.274 79.467 228.921 32.193"/>
  <polygon class="cls-1" points="120.485 5.164 121.958 52.316 131.565 45.33 120.485 5.164"/>
  <polygon class="cls-1" points="204.824 83.385 204.824 86.061 204.824 92.945 246.133 51.636 201.383 80.956 202.638 81.842 204.824 83.385"/>
  <polygon class="cls-1" points="79.176 86.061 79.176 83.431 81.302 81.885 85.344 78.945 39.588 46.473 74.012 84.339 25.818 68.848 72.291 101.552 15.491 91.224 68.848 113.6 10.327 111.879 72.291 130.812 3.442 135.976 70.57 146.303 0 160.073 77.727 165.747 79.176 165.747 79.176 165.236 79.176 86.061"/>
  <path class="cls-2" d="M199.661,86.061l-17.233-12.165.021-20.538h-18.933l-.389,6.914-21.987-15.52-56.8,41.309v79.176h5.179c.128-20.624,1.393-27.712,13.755-41.309,17.212-18.933,47.04-21.637,68.848-29.261,4.589-1.604,3.347-6.464,1.454-10.318-.812-1.653,1.083-3.32,2.609-2.29,4.639,3.129,10.059,9.126,7.985,19.493-2.193,10.966-36.854,12.96-37.867,24.097-1.372,15.093,27.868,27.998,43.275,39.588h10.083v-79.176Z"/>
  <path class="cls-1" d="M116.647,142.854l-6.53-.109c-.316-.005-.579.241-.595.556l-1.057,21.32c-.017.334.25.615.585.615h15.744c.411,0,.694-.412.547-.796l-8.158-21.211c-.086-.223-.298-.371-.537-.375Z"/>
  <path class="cls-1" d="M132.78,119.625l-5.176-.824c-.151-.024-.305.012-.429.1l-13.985,9.851c-.44.31-.264.999.271,1.06l8.476.969c.171.02.341-.037.467-.154l10.685-9.996c.356-.333.173-.929-.308-1.006Z"/>
  <path class="cls-1" d="M162.749,104.447l-1.828-1.305c-.158-.113-.361-.14-.543-.073l-14.992,5.545c-.486.18-.516.855-.049,1.078l4.731,2.253c.168.08.365.075.529-.013l12.089-6.494c.382-.205.416-.74.063-.992Z"/>
  <path class="cls-1" d="M179.38,92.814l-1.002-.286c-.218-.062-.452.007-.601.177l-4.805,5.485c-.269.307-.149.787.232.933l2.27.866c.268.102.57-.004.715-.252l3.538-6.065c.193-.33.022-.753-.345-.858Z"/>
</svg>